<svg width="149" height="34" viewBox="0 0 149 34" fill="none" xmlns="http://www.w3.org/2000/svg">
<path fill-rule="evenodd" clip-rule="evenodd" d="M11.9167 27.754C16.3711 27.284 19.8875 23.4261 20.1508 18.6397H11.9167V27.754ZM21.9868 18.6397H22V18.0625V6.375L11 6.375C4.92486 6.375 -5.31105e-07 11.6077 0 18.0625C5.31105e-07 24.5173 4.92486 29.75 11 29.75C16.893 29.75 21.7036 24.8263 21.9868 18.6397ZM11 8.32292C5.93739 8.32292 1.83333 12.6835 1.83333 18.0625C1.83333 23.1128 5.45112 27.2653 10.0833 27.754V16.6918H20.1667V8.32292H11Z" fill="#1B2437"/>
<path d="M47.6914 11.4023C45.8086 11.4023 44.3203 12.0312 43.2266 13.2891C42.1406 14.5391 41.5977 16.2539 41.5977 18.4336C41.5977 20.6758 42.1211 22.4102 43.168 23.6367C44.2227 24.8555 45.7227 25.4648 47.668 25.4648C48.8633 25.4648 50.2266 25.25 51.7578 24.8203V26.5664C50.5703 27.0117 49.1055 27.2344 47.3633 27.2344C44.8398 27.2344 42.8906 26.4688 41.5156 24.9375C40.1484 23.4062 39.4648 21.2305 39.4648 18.4102C39.4648 16.6445 39.793 15.0977 40.4492 13.7695C41.1133 12.4414 42.0664 11.418 43.3086 10.6992C44.5586 9.98047 46.0273 9.62109 47.7148 9.62109C49.5117 9.62109 51.082 9.94922 52.4258 10.6055L51.582 12.3164C50.2852 11.707 48.9883 11.4023 47.6914 11.4023ZM57.1484 27H55.2031V8.76562H57.1484V27ZM69.1719 27L68.7852 25.1719H68.6914C68.0508 25.9766 67.4102 26.5234 66.7695 26.8125C66.1367 27.0938 65.3438 27.2344 64.3906 27.2344C63.1172 27.2344 62.1172 26.9062 61.3906 26.25C60.6719 25.5938 60.3125 24.6602 60.3125 23.4492C60.3125 20.8555 62.3867 19.4961 66.5352 19.3711L68.7148 19.3008V18.5039C68.7148 17.4961 68.4961 16.7539 68.0586 16.2773C67.6289 15.793 66.9375 15.5508 65.9844 15.5508C64.9141 15.5508 63.7031 15.8789 62.3516 16.5352L61.7539 15.0469C62.3867 14.7031 63.0781 14.4336 63.8281 14.2383C64.5859 14.043 65.3438 13.9453 66.1016 13.9453C67.6328 13.9453 68.7656 14.2852 69.5 14.9648C70.2422 15.6445 70.6133 16.7344 70.6133 18.2344V27H69.1719ZM64.7773 25.6289C65.9883 25.6289 66.9375 25.2969 67.625 24.6328C68.3203 23.9688 68.668 23.0391 68.668 21.8438V20.6836L66.7227 20.7656C65.1758 20.8203 64.0586 21.0625 63.3711 21.4922C62.6914 21.9141 62.3516 22.5742 62.3516 23.4727C62.3516 24.1758 62.5625 24.7109 62.9844 25.0781C63.4141 25.4453 64.0117 25.6289 64.7773 25.6289ZM72.5938 14.1562H74.6797L77.4922 21.4805C78.1094 23.1523 78.4922 24.3594 78.6406 25.1016H78.7344C78.8359 24.7031 79.0469 24.0234 79.3672 23.0625C79.6953 22.0938 80.7578 19.125 82.5547 14.1562H84.6406L79.1211 28.7812C78.5742 30.2266 77.9336 31.25 77.1992 31.8516C76.4727 32.4609 75.5781 32.7656 74.5156 32.7656C73.9219 32.7656 73.3359 32.6992 72.7578 32.5664V31.0078C73.1875 31.1016 73.668 31.1484 74.1992 31.1484C75.5352 31.1484 76.4883 30.3984 77.0586 28.8984L77.7734 27.0703L72.5938 14.1562ZM102.922 22.4414C102.922 23.9492 102.375 25.125 101.281 25.9688C100.188 26.8125 98.7031 27.2344 96.8281 27.2344C94.7969 27.2344 93.2344 26.9727 92.1406 26.4492V24.5273C92.8438 24.8242 93.6094 25.0586 94.4375 25.2305C95.2656 25.4023 96.0859 25.4883 96.8984 25.4883C98.2266 25.4883 99.2266 25.2383 99.8984 24.7383C100.57 24.2305 100.906 23.5273 100.906 22.6289C100.906 22.0352 100.785 21.5508 100.543 21.1758C100.309 20.793 99.9102 20.4414 99.3477 20.1211C98.793 19.8008 97.9453 19.4375 96.8047 19.0312C95.2109 18.4609 94.0703 17.7852 93.3828 17.0039C92.7031 16.2227 92.3633 15.2031 92.3633 13.9453C92.3633 12.625 92.8594 11.5742 93.8516 10.793C94.8438 10.0117 96.1562 9.62109 97.7891 9.62109C99.4922 9.62109 101.059 9.93359 102.488 10.5586L101.867 12.293C100.453 11.6992 99.0781 11.4023 97.7422 11.4023C96.6875 11.4023 95.8633 11.6289 95.2695 12.082C94.6758 12.5352 94.3789 13.1641 94.3789 13.9688C94.3789 14.5625 94.4883 15.0508 94.707 15.4336C94.9258 15.8086 95.293 16.1562 95.8086 16.4766C96.332 16.7891 97.1289 17.1367 98.1992 17.5195C99.9961 18.1602 101.23 18.8477 101.902 19.582C102.582 20.3164 102.922 21.2695 102.922 22.4414ZM114.922 27V18.6914C114.922 17.6445 114.684 16.8633 114.207 16.3477C113.73 15.832 112.984 15.5742 111.969 15.5742C110.617 15.5742 109.629 15.9414 109.004 16.6758C108.387 17.4102 108.078 18.6133 108.078 20.2852V27H106.133V8.76562H108.078V14.2852C108.078 14.9492 108.047 15.5 107.984 15.9375H108.102C108.484 15.3203 109.027 14.8359 109.73 14.4844C110.441 14.125 111.25 13.9453 112.156 13.9453C113.727 13.9453 114.902 14.3203 115.684 15.0703C116.473 15.8125 116.867 16.9961 116.867 18.6211V27H114.922ZM131.961 20.5664C131.961 22.6602 131.434 24.2969 130.379 25.4766C129.324 26.6484 127.867 27.2344 126.008 27.2344C124.859 27.2344 123.84 26.9648 122.949 26.4258C122.059 25.8867 121.371 25.1133 120.887 24.1055C120.402 23.0977 120.16 21.918 120.16 20.5664C120.16 18.4727 120.684 16.8438 121.73 15.6797C122.777 14.5078 124.23 13.9219 126.09 13.9219C127.887 13.9219 129.312 14.5195 130.367 15.7148C131.43 16.9102 131.961 18.5273 131.961 20.5664ZM122.176 20.5664C122.176 22.207 122.504 23.457 123.16 24.3164C123.816 25.1758 124.781 25.6055 126.055 25.6055C127.328 25.6055 128.293 25.1797 128.949 24.3281C129.613 23.4688 129.945 22.2148 129.945 20.5664C129.945 18.9336 129.613 17.6953 128.949 16.8516C128.293 16 127.32 15.5742 126.031 15.5742C124.758 15.5742 123.797 15.9922 123.148 16.8281C122.5 17.6641 122.176 18.9102 122.176 20.5664ZM141.359 27.2344C140.523 27.2344 139.758 27.082 139.062 26.7773C138.375 26.4648 137.797 25.9883 137.328 25.3477H137.188C137.281 26.0977 137.328 26.8086 137.328 27.4805V32.7656H135.383V14.1562H136.965L137.234 15.9141H137.328C137.828 15.2109 138.41 14.7031 139.074 14.3906C139.738 14.0781 140.5 13.9219 141.359 13.9219C143.062 13.9219 144.375 14.5039 145.297 15.668C146.227 16.832 146.691 18.4648 146.691 20.5664C146.691 22.6758 146.219 24.3164 145.273 25.4883C144.336 26.6523 143.031 27.2344 141.359 27.2344ZM141.078 15.5742C139.766 15.5742 138.816 15.9375 138.23 16.6641C137.645 17.3906 137.344 18.5469 137.328 20.1328V20.5664C137.328 22.3711 137.629 23.6641 138.23 24.4453C138.832 25.2188 139.797 25.6055 141.125 25.6055C142.234 25.6055 143.102 25.1562 143.727 24.2578C144.359 23.3594 144.676 22.1211 144.676 20.543C144.676 18.9414 144.359 17.7148 143.727 16.8633C143.102 16.0039 142.219 15.5742 141.078 15.5742Z" fill="#1B2437"/>
</svg>
