<svg width="25" height="24" viewBox="0 0 25 24" fill="none" xmlns="http://www.w3.org/2000/svg">
<path fill-rule="evenodd" clip-rule="evenodd" d="M20.8576 8.70406C20.8201 7.85391 20.6826 7.26945 20.4856 6.763C20.2824 6.22542 19.9698 5.74412 19.5602 5.34402C19.16 4.93769 18.6755 4.62195 18.144 4.42196C17.6345 4.22502 17.053 4.08754 16.2027 4.05006C15.346 4.0094 15.0741 4 12.9014 4C10.7286 4 10.4567 4.0094 9.60321 4.04688C8.7529 4.08437 8.16833 4.22197 7.6619 4.41878C7.12409 4.62195 6.64271 4.93451 6.24253 5.34402C5.83612 5.74412 5.52044 6.22859 5.32029 6.75994C5.12332 7.26945 4.98581 7.85074 4.94832 8.70088C4.90766 9.55738 4.89825 9.82928 4.89825 12.0016C4.89825 14.1739 4.90766 14.4458 4.94515 15.2991C4.98264 16.1493 5.12026 16.7338 5.31724 17.2402C5.52044 17.7778 5.83612 18.259 6.24253 18.6591C6.64271 19.0655 7.12727 19.3812 7.65873 19.5812C8.16833 19.7782 8.74973 19.9156 9.60016 19.9531C10.4535 19.9907 10.7256 20 12.8983 20C15.0711 20 15.343 19.9907 16.1965 19.9531C17.0468 19.9156 17.6314 19.7782 18.1378 19.5812C19.2133 19.1655 20.0636 18.3154 20.4794 17.2402C20.6763 16.7306 20.8139 16.1493 20.8514 15.2991C20.8888 14.4458 20.8983 14.1739 20.8983 12.0016C20.8983 9.82928 20.8951 9.55738 20.8576 8.70406ZM19.4165 15.2366C19.382 16.018 19.2507 16.44 19.1414 16.7213C18.8724 17.4183 18.3191 17.9715 17.6219 18.2404C17.3406 18.3498 16.9155 18.481 16.137 18.5154C15.2929 18.553 15.0398 18.5622 12.9046 18.5622C10.7693 18.5622 10.513 18.553 9.67197 18.5154C8.89041 18.481 8.46837 18.3498 8.18701 18.2404C7.84007 18.1122 7.52428 17.909 7.26795 17.6434C7.00222 17.3839 6.79902 17.0713 6.6708 16.7245C6.56137 16.4431 6.4301 16.018 6.39578 15.2398C6.35817 14.3958 6.34889 14.1426 6.34889 12.0078C6.34889 9.87299 6.35817 9.61671 6.39578 8.77597C6.4301 7.99457 6.56137 7.57261 6.6708 7.2913C6.79902 6.94431 7.00222 6.6287 7.27113 6.3723C7.5305 6.10662 7.84313 5.90346 8.19018 5.77538C8.47154 5.66598 8.89676 5.53473 9.67513 5.5003C10.5192 5.46282 10.7725 5.45342 12.9076 5.45342C15.046 5.45342 15.2991 5.46282 16.1402 5.5003C16.9217 5.53473 17.3438 5.66598 17.6251 5.77538C17.9721 5.90346 18.2879 6.10662 18.5442 6.3723C18.8099 6.63174 19.0131 6.94431 19.1414 7.2913C19.2507 7.57261 19.382 7.99762 19.4165 8.77597C19.4539 9.61989 19.4634 9.87299 19.4634 12.0078C19.4634 14.1426 19.4539 14.3927 19.4165 15.2366ZM12.8448 8.27744C10.666 8.27744 8.89825 10.0451 8.89825 12.224C8.89825 14.4029 10.666 16.1705 12.8448 16.1705C15.0237 16.1705 16.7913 14.4029 16.7913 12.224C16.7913 10.0451 15.0237 8.27744 12.8448 8.27744ZM12.8448 14.784C11.4313 14.784 10.2848 13.6376 10.2848 12.224C10.2848 10.8104 11.4313 9.66396 12.8448 9.66396C14.2584 9.66396 15.4048 10.8104 15.4048 12.224C15.4048 13.6376 14.2584 14.784 12.8448 14.784ZM16.9474 9.04267C17.4563 9.04267 17.8688 8.63013 17.8688 8.12134C17.8688 7.61242 17.4563 7.2 16.9474 7.2C16.4386 7.2 16.026 7.61242 16.026 8.12134C16.026 8.63013 16.4386 9.04267 16.9474 9.04267Z" fill="#1B2437"/>
</svg>
